<svg width="311" height="86" viewBox="0 0 311 86" fill="none" xmlns="http://www.w3.org/2000/svg">
<path d="M63.4 68V17.6H72.184V68H63.4ZM81.9372 68V17.6H90.7212V59.216H111.709V68H81.9372ZM119.625 68L129.417 17.6H136.689L148.965 49.892L161.241 17.6H168.513L178.305 68H169.341L163.293 36.824L151.953 66.848H145.941L134.601 36.824L128.589 68H119.625Z" fill="#0A1628"/>
<path d="M219.229 17.855V23.8724H202.538V68H196.521V23.8724H179.865V17.855H219.229ZM226.42 68V17.855H257.188V23.8724H232.438V38.1279H252.711V44.1453H232.438V61.9826H257.188V68H226.42ZM287.687 68.9313C284.296 68.9313 281.108 68.2627 278.123 66.9255C275.138 65.5644 272.512 63.7019 270.243 61.3379C267.999 58.95 266.232 56.1801 264.942 53.0281C263.677 49.8762 263.044 46.5093 263.044 42.9275C263.044 39.3457 263.677 35.9789 264.942 32.8269C266.232 29.6749 267.999 26.9169 270.243 24.553C272.512 22.1651 275.138 20.3026 278.123 18.9654C281.108 17.6043 284.296 16.9238 287.687 16.9238C291.746 16.9238 295.483 17.867 298.898 19.7534C302.312 21.6398 305.142 24.147 307.386 27.2751L302.05 30.1405C300.378 27.9437 298.265 26.2006 295.71 24.9111C293.179 23.5978 290.504 22.9412 287.687 22.9412C285.084 22.9412 282.648 23.4665 280.38 24.5171C278.135 25.5678 276.165 27.0125 274.47 28.8511C272.774 30.6898 271.449 32.8149 270.494 35.2267C269.539 37.6384 269.061 40.2054 269.061 42.9275C269.061 45.6735 269.539 48.2524 270.494 50.6642C271.473 53.0759 272.81 55.2011 274.506 57.0397C276.225 58.8784 278.207 60.323 280.451 61.3737C282.72 62.4005 285.132 62.9139 287.687 62.9139C290.6 62.9139 293.298 62.2572 295.781 60.9439C298.289 59.6067 300.378 57.8636 302.05 55.7145L307.386 58.6157C305.142 61.7438 302.312 64.2511 298.898 66.1375C295.483 68 291.746 68.9313 287.687 68.9313Z" fill="url(#paint0_linear_2510_76)"/>
<path fill-rule="evenodd" clip-rule="evenodd" d="M19.1153 17L54 41.9286L19.1153 68.6463L18.985 68.4588L18.7426 68.6459L0 42L19.1153 17ZM44.7237 42.0231L6.91208 41.8681L20.2187 24.2688L44.8449 41.9286L44.7237 42.0231Z" fill="url(#paint1_linear_2510_76)"/>
<path fill-rule="evenodd" clip-rule="evenodd" d="M18.7426 41.9109H36.1884H54L19.1153 69.2753L18.985 69.0845L18.7426 69.275L0 41.9981L18.7426 41.9109Z" fill="black"/>
<defs>
<linearGradient id="paint0_linear_2510_76" x1="177" y1="43.3757" x2="310.994" y2="42.053" gradientUnits="userSpaceOnUse">
<stop stop-color="#3B82F6"/>
<stop offset="0.403846" stop-color="#9465C8"/>
<stop offset="0.807692" stop-color="#EC4899"/>
</linearGradient>
<linearGradient id="paint1_linear_2510_76" x1="-7.66204" y1="40.9987" x2="26.8172" y2="68.6463" gradientUnits="userSpaceOnUse">
<stop stop-color="#EC4899"/>
<stop offset="1" stop-color="#2A55CE"/>
</linearGradient>
</defs>
</svg>
